<?xml version="1.0" encoding="UTF-8"?>
<svg xmlns="http://www.w3.org/2000/svg" xmlns:xlink="http://www.w3.org/1999/xlink" width="48pt" height="48pt" viewBox="0 0 48 48" version="1.1">
<g id="surface1">
<path style=" stroke:none;fill-rule:nonzero;fill:rgb(90.196078%,22.352941%,31.372549%);fill-opacity:1;" d="M 16.96875 38.539062 L 31.03125 38.539062 L 31.03125 48 L 16.96875 48 Z M 16.96875 38.539062 "/>
<path style=" stroke:none;fill-rule:nonzero;fill:rgb(80%,18.039216%,26.27451%);fill-opacity:1;" d="M 24 38.539062 L 31.03125 38.539062 L 31.03125 48 L 24 48 Z M 24 38.539062 "/>
<path style=" stroke:none;fill-rule:nonzero;fill:rgb(23.529412%,10.588235%,7.45098%);fill-opacity:1;" d="M 34.027344 24.089844 L 28.328125 37.511719 L 30.921875 38.613281 L 37.378906 23.390625 Z M 34.027344 24.089844 "/>
<path style=" stroke:none;fill-rule:nonzero;fill:rgb(34.509804%,16.862745%,12.156863%);fill-opacity:1;" d="M 22.59375 32.4375 L 25.40625 32.4375 L 25.40625 38.0625 L 22.59375 38.0625 Z M 22.59375 32.4375 "/>
<path style=" stroke:none;fill-rule:nonzero;fill:rgb(34.509804%,16.862745%,12.156863%);fill-opacity:1;" d="M 17.078125 38.613281 L 10.363281 22.789062 L 12.953125 21.6875 L 19.671875 37.511719 Z M 17.078125 38.613281 "/>
<path style=" stroke:none;fill-rule:nonzero;fill:rgb(23.529412%,10.588235%,7.45098%);fill-opacity:1;" d="M 24 32.4375 L 25.40625 32.4375 L 25.40625 38.0625 L 24 38.0625 Z M 24 32.4375 "/>
<path style=" stroke:none;fill-rule:nonzero;fill:rgb(99.215686%,74.901961%,0%);fill-opacity:1;" d="M 14.15625 36.65625 L 33.84375 36.65625 L 33.84375 39.46875 L 14.15625 39.46875 Z M 14.15625 36.65625 "/>
<path style=" stroke:none;fill-rule:nonzero;fill:rgb(100%,62.352941%,0%);fill-opacity:1;" d="M 24 36.65625 L 33.84375 36.65625 L 33.84375 39.46875 L 24 39.46875 Z M 24 36.65625 "/>
<path style=" stroke:none;fill-rule:nonzero;fill:rgb(90.196078%,22.352941%,31.372549%);fill-opacity:1;" d="M 24 0 C 16.96875 0 11.710938 3.132812 9.515625 8.476562 C 9.289062 9.039062 9.121094 9.628906 8.980469 10.21875 C 8.082031 13.988281 8.585938 18.570312 10.359375 22.789062 C 13.226562 29.511719 18.570312 33.84375 24 33.84375 C 28.921875 33.84375 33.703125 30.414062 36.742188 24.648438 C 38.511719 21.328125 39.46875 17.617188 39.46875 14.15625 C 39.46875 5.605469 33.394531 0 24 0 Z M 24 0 "/>
<path style=" stroke:none;fill-rule:nonzero;fill:rgb(80%,18.039216%,26.27451%);fill-opacity:1;" d="M 39.46875 14.15625 C 39.46875 17.617188 38.511719 21.328125 36.742188 24.648438 C 33.703125 30.414062 28.921875 33.84375 24 33.84375 L 24 0 C 33.394531 0 39.46875 5.605469 39.46875 14.15625 Z M 39.46875 14.15625 "/>
<path style=" stroke:none;fill-rule:nonzero;fill:rgb(99.215686%,74.901961%,0%);fill-opacity:1;" d="M 24 0 C 19.585938 0 16.96875 5.351562 16.96875 14.15625 C 16.96875 22.085938 19.191406 33.84375 24 33.84375 C 28.808594 33.84375 31.03125 22.085938 31.03125 14.15625 C 31.03125 5.351562 28.414062 0 24 0 Z M 24 0 "/>
<path style=" stroke:none;fill-rule:nonzero;fill:rgb(100%,62.352941%,0%);fill-opacity:1;" d="M 24 33.84375 L 24 0 C 28.414062 0 31.03125 5.351562 31.03125 14.15625 C 31.03125 22.085938 28.808594 33.84375 24 33.84375 Z M 24 33.84375 "/>
<path style=" stroke:none;fill-rule:nonzero;fill:rgb(98.039216%,92.54902%,84.705882%);fill-opacity:1;" d="M 15.5625 16.96875 L 9.9375 16.96875 C 8.105469 16.96875 6.539062 15.792969 5.960938 14.15625 L 4.21875 14.15625 C 1.890625 14.15625 0 12.265625 0 9.9375 C 0 7.613281 1.890625 5.71875 4.21875 5.71875 L 9.9375 5.71875 C 11.773438 5.71875 13.335938 6.894531 13.917969 8.53125 L 15.5625 8.53125 C 17.890625 8.53125 19.78125 10.425781 19.78125 12.75 C 19.78125 15.078125 17.890625 16.96875 15.5625 16.96875 Z M 15.5625 16.96875 "/>
<path style=" stroke:none;fill-rule:nonzero;fill:rgb(97.254902%,89.803922%,79.215686%);fill-opacity:1;" d="M 43.78125 28.21875 L 38.0625 28.21875 C 36.226562 28.21875 34.664062 27.042969 34.085938 25.40625 L 32.4375 25.40625 C 30.109375 25.40625 28.21875 23.515625 28.21875 21.1875 C 28.21875 18.863281 30.109375 16.96875 32.4375 16.96875 L 38.0625 16.96875 C 39.898438 16.96875 41.460938 18.144531 42.039062 19.78125 L 43.78125 19.78125 C 46.109375 19.78125 48 21.675781 48 24 C 48 26.328125 46.109375 28.21875 43.78125 28.21875 Z M 43.78125 28.21875 "/>
</g>
</svg>
