<?xml version="1.0" encoding="UTF-8"?>
<svg xmlns="http://www.w3.org/2000/svg" xmlns:xlink="http://www.w3.org/1999/xlink" width="24pt" height="24pt" viewBox="0 0 24 24" version="1.1">
<g id="surface1">
<path style=" stroke:none;fill-rule:nonzero;fill:rgb(90.196078%,22.352941%,31.372549%);fill-opacity:1;" d="M 8.484375 19.269531 L 15.515625 19.269531 L 15.515625 24 L 8.484375 24 Z M 8.484375 19.269531 "/>
<path style=" stroke:none;fill-rule:nonzero;fill:rgb(80%,18.039216%,26.27451%);fill-opacity:1;" d="M 12 19.269531 L 15.515625 19.269531 L 15.515625 24 L 12 24 Z M 12 19.269531 "/>
<path style=" stroke:none;fill-rule:nonzero;fill:rgb(23.529412%,10.588235%,7.45098%);fill-opacity:1;" d="M 17.015625 12.042969 L 14.164062 18.757812 L 15.460938 19.304688 L 18.691406 11.695312 Z M 17.015625 12.042969 "/>
<path style=" stroke:none;fill-rule:nonzero;fill:rgb(34.509804%,16.862745%,12.156863%);fill-opacity:1;" d="M 11.296875 16.21875 L 12.703125 16.21875 L 12.703125 19.03125 L 11.296875 19.03125 Z M 11.296875 16.21875 "/>
<path style=" stroke:none;fill-rule:nonzero;fill:rgb(34.509804%,16.862745%,12.156863%);fill-opacity:1;" d="M 8.539062 19.304688 L 5.179688 11.394531 L 6.476562 10.84375 L 9.835938 18.757812 Z M 8.539062 19.304688 "/>
<path style=" stroke:none;fill-rule:nonzero;fill:rgb(23.529412%,10.588235%,7.45098%);fill-opacity:1;" d="M 12 16.21875 L 12.703125 16.21875 L 12.703125 19.03125 L 12 19.03125 Z M 12 16.21875 "/>
<path style=" stroke:none;fill-rule:nonzero;fill:rgb(99.215686%,74.901961%,0%);fill-opacity:1;" d="M 7.078125 18.328125 L 16.921875 18.328125 L 16.921875 19.734375 L 7.078125 19.734375 Z M 7.078125 18.328125 "/>
<path style=" stroke:none;fill-rule:nonzero;fill:rgb(100%,62.352941%,0%);fill-opacity:1;" d="M 12 18.328125 L 16.921875 18.328125 L 16.921875 19.734375 L 12 19.734375 Z M 12 18.328125 "/>
<path style=" stroke:none;fill-rule:nonzero;fill:rgb(90.196078%,22.352941%,31.372549%);fill-opacity:1;" d="M 12 0 C 8.484375 0 5.855469 1.566406 4.757812 4.238281 C 4.644531 4.519531 4.5625 4.8125 4.492188 5.109375 C 4.039062 6.992188 4.292969 9.285156 5.179688 11.394531 C 6.613281 14.757812 9.285156 16.921875 12 16.921875 C 14.460938 16.921875 16.851562 15.207031 18.371094 12.324219 C 19.257812 10.664062 19.734375 8.808594 19.734375 7.078125 C 19.734375 2.804688 16.695312 0 12 0 Z M 12 0 "/>
<path style=" stroke:none;fill-rule:nonzero;fill:rgb(80%,18.039216%,26.27451%);fill-opacity:1;" d="M 19.734375 7.078125 C 19.734375 8.808594 19.257812 10.664062 18.371094 12.324219 C 16.851562 15.207031 14.460938 16.921875 12 16.921875 L 12 0 C 16.695312 0 19.734375 2.804688 19.734375 7.078125 Z M 19.734375 7.078125 "/>
<path style=" stroke:none;fill-rule:nonzero;fill:rgb(99.215686%,74.901961%,0%);fill-opacity:1;" d="M 12 0 C 9.792969 0 8.484375 2.675781 8.484375 7.078125 C 8.484375 11.042969 9.59375 16.921875 12 16.921875 C 14.40625 16.921875 15.515625 11.042969 15.515625 7.078125 C 15.515625 2.675781 14.207031 0 12 0 Z M 12 0 "/>
<path style=" stroke:none;fill-rule:nonzero;fill:rgb(100%,62.352941%,0%);fill-opacity:1;" d="M 12 16.921875 L 12 0 C 14.207031 0 15.515625 2.675781 15.515625 7.078125 C 15.515625 11.042969 14.40625 16.921875 12 16.921875 Z M 12 16.921875 "/>
<path style=" stroke:none;fill-rule:nonzero;fill:rgb(98.039216%,92.54902%,84.705882%);fill-opacity:1;" d="M 7.78125 8.484375 L 4.96875 8.484375 C 4.050781 8.484375 3.269531 7.898438 2.980469 7.078125 L 2.109375 7.078125 C 0.945312 7.078125 0 6.132812 0 4.96875 C 0 3.804688 0.945312 2.859375 2.109375 2.859375 L 4.96875 2.859375 C 5.886719 2.859375 6.667969 3.445312 6.957031 4.265625 L 7.78125 4.265625 C 8.945312 4.265625 9.890625 5.210938 9.890625 6.375 C 9.890625 7.539062 8.945312 8.484375 7.78125 8.484375 Z M 7.78125 8.484375 "/>
<path style=" stroke:none;fill-rule:nonzero;fill:rgb(97.254902%,89.803922%,79.215686%);fill-opacity:1;" d="M 21.890625 14.109375 L 19.03125 14.109375 C 18.113281 14.109375 17.332031 13.523438 17.042969 12.703125 L 16.21875 12.703125 C 15.054688 12.703125 14.109375 11.757812 14.109375 10.59375 C 14.109375 9.429688 15.054688 8.484375 16.21875 8.484375 L 19.03125 8.484375 C 19.949219 8.484375 20.730469 9.070312 21.019531 9.890625 L 21.890625 9.890625 C 23.054688 9.890625 24 10.835938 24 12 C 24 13.164062 23.054688 14.109375 21.890625 14.109375 Z M 21.890625 14.109375 "/>
</g>
</svg>
