<?xml version="1.0" encoding="UTF-8"?>
<svg xmlns="http://www.w3.org/2000/svg" xmlns:xlink="http://www.w3.org/1999/xlink" width="128pt" height="128pt" viewBox="0 0 128 128" version="1.1">
<g id="surface1">
<path style=" stroke:none;fill-rule:nonzero;fill:rgb(90.196078%,22.352941%,31.372549%);fill-opacity:1;" d="M 45.25 102.773438 L 82.75 102.773438 L 82.75 128 L 45.25 128 Z M 45.25 102.773438 "/>
<path style=" stroke:none;fill-rule:nonzero;fill:rgb(80%,18.039216%,26.27451%);fill-opacity:1;" d="M 64 102.773438 L 82.75 102.773438 L 82.75 128 L 64 128 Z M 64 102.773438 "/>
<path style=" stroke:none;fill-rule:nonzero;fill:rgb(23.529412%,10.588235%,7.45098%);fill-opacity:1;" d="M 90.742188 64.238281 L 75.546875 100.035156 L 82.453125 102.964844 L 99.679688 62.375 Z M 90.742188 64.238281 "/>
<path style=" stroke:none;fill-rule:nonzero;fill:rgb(34.509804%,16.862745%,12.156863%);fill-opacity:1;" d="M 60.25 86.5 L 67.75 86.5 L 67.75 101.5 L 60.25 101.5 Z M 60.25 86.5 "/>
<path style=" stroke:none;fill-rule:nonzero;fill:rgb(34.509804%,16.862745%,12.156863%);fill-opacity:1;" d="M 45.546875 102.964844 L 27.632812 60.765625 L 34.542969 57.835938 L 52.453125 100.035156 Z M 45.546875 102.964844 "/>
<path style=" stroke:none;fill-rule:nonzero;fill:rgb(23.529412%,10.588235%,7.45098%);fill-opacity:1;" d="M 64 86.5 L 67.75 86.5 L 67.75 101.5 L 64 101.5 Z M 64 86.5 "/>
<path style=" stroke:none;fill-rule:nonzero;fill:rgb(99.215686%,74.901961%,0%);fill-opacity:1;" d="M 37.75 97.75 L 90.25 97.75 L 90.25 105.25 L 37.75 105.25 Z M 37.75 97.75 "/>
<path style=" stroke:none;fill-rule:nonzero;fill:rgb(100%,62.352941%,0%);fill-opacity:1;" d="M 64 97.75 L 90.25 97.75 L 90.25 105.25 L 64 105.25 Z M 64 97.75 "/>
<path style=" stroke:none;fill-rule:nonzero;fill:rgb(90.196078%,22.352941%,31.372549%);fill-opacity:1;" d="M 64 0 C 45.25 0 31.226562 8.351562 25.375 22.601562 C 24.773438 24.101562 24.324219 25.675781 23.949219 27.25 C 21.550781 37.300781 22.898438 49.523438 27.625 60.773438 C 35.273438 78.699219 49.523438 90.25 64 90.25 C 77.125 90.25 89.875 81.101562 97.976562 65.726562 C 102.699219 56.875 105.25 46.976562 105.25 37.75 C 105.25 14.949219 89.050781 0 64 0 Z M 64 0 "/>
<path style=" stroke:none;fill-rule:nonzero;fill:rgb(80%,18.039216%,26.27451%);fill-opacity:1;" d="M 105.25 37.75 C 105.25 46.976562 102.699219 56.875 97.976562 65.726562 C 89.875 81.101562 77.125 90.25 64 90.25 L 64 0 C 89.050781 0 105.25 14.949219 105.25 37.75 Z M 105.25 37.75 "/>
<path style=" stroke:none;fill-rule:nonzero;fill:rgb(99.215686%,74.901961%,0%);fill-opacity:1;" d="M 64 0 C 52.226562 0 45.25 14.273438 45.25 37.75 C 45.25 58.898438 51.175781 90.25 64 90.25 C 76.824219 90.25 82.75 58.898438 82.75 37.75 C 82.75 14.273438 75.773438 0 64 0 Z M 64 0 "/>
<path style=" stroke:none;fill-rule:nonzero;fill:rgb(100%,62.352941%,0%);fill-opacity:1;" d="M 64 90.25 L 64 0 C 75.773438 0 82.75 14.273438 82.75 37.75 C 82.75 58.898438 76.824219 90.25 64 90.25 Z M 64 90.25 "/>
<path style=" stroke:none;fill-rule:nonzero;fill:rgb(98.039216%,92.54902%,84.705882%);fill-opacity:1;" d="M 41.5 45.25 L 26.5 45.25 C 21.609375 45.25 17.441406 42.117188 15.890625 37.75 L 11.25 37.75 C 5.046875 37.75 0 32.703125 0 26.5 C 0 20.296875 5.046875 15.25 11.25 15.25 L 26.5 15.25 C 31.390625 15.25 35.558594 18.382812 37.109375 22.75 L 41.5 22.75 C 47.703125 22.75 52.75 27.796875 52.75 34 C 52.75 40.203125 47.703125 45.25 41.5 45.25 Z M 41.5 45.25 "/>
<path style=" stroke:none;fill-rule:nonzero;fill:rgb(97.254902%,89.803922%,79.215686%);fill-opacity:1;" d="M 116.75 75.25 L 101.5 75.25 C 96.609375 75.25 92.441406 72.117188 90.890625 67.75 L 86.5 67.75 C 80.296875 67.75 75.25 62.703125 75.25 56.5 C 75.25 50.296875 80.296875 45.25 86.5 45.25 L 101.5 45.25 C 106.390625 45.25 110.558594 48.382812 112.109375 52.75 L 116.75 52.75 C 122.953125 52.75 128 57.796875 128 64 C 128 70.203125 122.953125 75.25 116.75 75.25 Z M 116.75 75.25 "/>
</g>
</svg>
