<?xml version="1.0" encoding="UTF-8"?>
<svg xmlns="http://www.w3.org/2000/svg" xmlns:xlink="http://www.w3.org/1999/xlink" width="256pt" height="256pt" viewBox="0 0 256 256" version="1.1">
<g id="surface1">
<path style=" stroke:none;fill-rule:nonzero;fill:rgb(90.196078%,22.352941%,31.372549%);fill-opacity:1;" d="M 90.5 205.546875 L 165.5 205.546875 L 165.5 256 L 90.5 256 Z M 90.5 205.546875 "/>
<path style=" stroke:none;fill-rule:nonzero;fill:rgb(80%,18.039216%,26.27451%);fill-opacity:1;" d="M 128 205.546875 L 165.5 205.546875 L 165.5 256 L 128 256 Z M 128 205.546875 "/>
<path style=" stroke:none;fill-rule:nonzero;fill:rgb(23.529412%,10.588235%,7.45098%);fill-opacity:1;" d="M 181.484375 128.476562 L 151.09375 200.070312 L 164.90625 205.929688 L 199.359375 124.753906 Z M 181.484375 128.476562 "/>
<path style=" stroke:none;fill-rule:nonzero;fill:rgb(34.509804%,16.862745%,12.156863%);fill-opacity:1;" d="M 120.5 173 L 135.5 173 L 135.5 203 L 120.5 203 Z M 120.5 173 "/>
<path style=" stroke:none;fill-rule:nonzero;fill:rgb(34.509804%,16.862745%,12.156863%);fill-opacity:1;" d="M 91.09375 205.929688 L 55.269531 121.53125 L 69.085938 115.671875 L 104.90625 200.070312 Z M 91.09375 205.929688 "/>
<path style=" stroke:none;fill-rule:nonzero;fill:rgb(23.529412%,10.588235%,7.45098%);fill-opacity:1;" d="M 128 173 L 135.5 173 L 135.5 203 L 128 203 Z M 128 173 "/>
<path style=" stroke:none;fill-rule:nonzero;fill:rgb(99.215686%,74.901961%,0%);fill-opacity:1;" d="M 75.5 195.5 L 180.5 195.5 L 180.5 210.5 L 75.5 210.5 Z M 75.5 195.5 "/>
<path style=" stroke:none;fill-rule:nonzero;fill:rgb(100%,62.352941%,0%);fill-opacity:1;" d="M 128 195.5 L 180.5 195.5 L 180.5 210.5 L 128 210.5 Z M 128 195.5 "/>
<path style=" stroke:none;fill-rule:nonzero;fill:rgb(90.196078%,22.352941%,31.372549%);fill-opacity:1;" d="M 128 0 C 90.5 0 62.449219 16.703125 50.75 45.199219 C 49.550781 48.199219 48.648438 51.351562 47.898438 54.5 C 43.101562 74.601562 45.800781 99.050781 55.25 121.550781 C 70.546875 157.398438 99.050781 180.5 128 180.5 C 154.25 180.5 179.75 162.203125 195.953125 131.449219 C 205.398438 113.75 210.5 93.949219 210.5 75.5 C 210.5 29.898438 178.101562 0 128 0 Z M 128 0 "/>
<path style=" stroke:none;fill-rule:nonzero;fill:rgb(80%,18.039216%,26.27451%);fill-opacity:1;" d="M 210.5 75.5 C 210.5 93.949219 205.398438 113.75 195.953125 131.449219 C 179.75 162.203125 154.25 180.5 128 180.5 L 128 0 C 178.101562 0 210.5 29.898438 210.5 75.5 Z M 210.5 75.5 "/>
<path style=" stroke:none;fill-rule:nonzero;fill:rgb(99.215686%,74.901961%,0%);fill-opacity:1;" d="M 128 0 C 104.449219 0 90.5 28.550781 90.5 75.5 C 90.5 117.800781 102.351562 180.5 128 180.5 C 153.648438 180.5 165.5 117.800781 165.5 75.5 C 165.5 28.550781 151.550781 0 128 0 Z M 128 0 "/>
<path style=" stroke:none;fill-rule:nonzero;fill:rgb(100%,62.352941%,0%);fill-opacity:1;" d="M 128 180.5 L 128 0 C 151.550781 0 165.5 28.550781 165.5 75.5 C 165.5 117.800781 153.648438 180.5 128 180.5 Z M 128 180.5 "/>
<path style=" stroke:none;fill-rule:nonzero;fill:rgb(98.039216%,92.54902%,84.705882%);fill-opacity:1;" d="M 83 90.5 L 53 90.5 C 43.222656 90.5 34.882812 84.230469 31.78125 75.5 L 22.5 75.5 C 10.09375 75.5 0 65.40625 0 53 C 0 40.59375 10.09375 30.5 22.5 30.5 L 53 30.5 C 62.777344 30.5 71.117188 36.769531 74.21875 45.5 L 83 45.5 C 95.40625 45.5 105.5 55.59375 105.5 68 C 105.5 80.40625 95.40625 90.5 83 90.5 Z M 83 90.5 "/>
<path style=" stroke:none;fill-rule:nonzero;fill:rgb(97.254902%,89.803922%,79.215686%);fill-opacity:1;" d="M 233.5 150.5 L 203 150.5 C 193.222656 150.5 184.882812 144.230469 181.78125 135.5 L 173 135.5 C 160.59375 135.5 150.5 125.40625 150.5 113 C 150.5 100.59375 160.59375 90.5 173 90.5 L 203 90.5 C 212.777344 90.5 221.117188 96.769531 224.21875 105.5 L 233.5 105.5 C 245.90625 105.5 256 115.59375 256 128 C 256 140.40625 245.90625 150.5 233.5 150.5 Z M 233.5 150.5 "/>
</g>
</svg>
