<?xml version="1.0" encoding="UTF-8"?>
<svg xmlns="http://www.w3.org/2000/svg" xmlns:xlink="http://www.w3.org/1999/xlink" width="16pt" height="16pt" viewBox="0 0 16 16" version="1.1">
<g id="surface1">
<path style=" stroke:none;fill-rule:nonzero;fill:rgb(90.196078%,22.352941%,31.372549%);fill-opacity:1;" d="M 5.65625 12.847656 L 10.34375 12.847656 L 10.34375 16 L 5.65625 16 Z M 5.65625 12.847656 "/>
<path style=" stroke:none;fill-rule:nonzero;fill:rgb(80%,18.039216%,26.27451%);fill-opacity:1;" d="M 8 12.847656 L 10.34375 12.847656 L 10.34375 16 L 8 16 Z M 8 12.847656 "/>
<path style=" stroke:none;fill-rule:nonzero;fill:rgb(23.529412%,10.588235%,7.45098%);fill-opacity:1;" d="M 11.34375 8.03125 L 9.445312 12.503906 L 10.308594 12.871094 L 12.460938 7.796875 Z M 11.34375 8.03125 "/>
<path style=" stroke:none;fill-rule:nonzero;fill:rgb(34.509804%,16.862745%,12.156863%);fill-opacity:1;" d="M 7.53125 10.8125 L 8.46875 10.8125 L 8.46875 12.6875 L 7.53125 12.6875 Z M 7.53125 10.8125 "/>
<path style=" stroke:none;fill-rule:nonzero;fill:rgb(34.509804%,16.862745%,12.156863%);fill-opacity:1;" d="M 5.695312 12.871094 L 3.453125 7.597656 L 4.316406 7.230469 L 6.554688 12.503906 Z M 5.695312 12.871094 "/>
<path style=" stroke:none;fill-rule:nonzero;fill:rgb(23.529412%,10.588235%,7.45098%);fill-opacity:1;" d="M 8 10.8125 L 8.46875 10.8125 L 8.46875 12.6875 L 8 12.6875 Z M 8 10.8125 "/>
<path style=" stroke:none;fill-rule:nonzero;fill:rgb(99.215686%,74.901961%,0%);fill-opacity:1;" d="M 4.71875 12.21875 L 11.28125 12.21875 L 11.28125 13.15625 L 4.71875 13.15625 Z M 4.71875 12.21875 "/>
<path style=" stroke:none;fill-rule:nonzero;fill:rgb(100%,62.352941%,0%);fill-opacity:1;" d="M 8 12.21875 L 11.28125 12.21875 L 11.28125 13.15625 L 8 13.15625 Z M 8 12.21875 "/>
<path style=" stroke:none;fill-rule:nonzero;fill:rgb(90.196078%,22.352941%,31.372549%);fill-opacity:1;" d="M 8 0 C 5.65625 0 3.902344 1.042969 3.171875 2.824219 C 3.097656 3.011719 3.039062 3.210938 2.992188 3.40625 C 2.695312 4.664062 2.863281 6.191406 3.453125 7.597656 C 4.410156 9.835938 6.191406 11.28125 8 11.28125 C 9.640625 11.28125 11.234375 10.136719 12.246094 8.214844 C 12.835938 7.109375 13.15625 5.871094 13.15625 4.71875 C 13.15625 1.867188 11.132812 0 8 0 Z M 8 0 "/>
<path style=" stroke:none;fill-rule:nonzero;fill:rgb(80%,18.039216%,26.27451%);fill-opacity:1;" d="M 13.15625 4.71875 C 13.15625 5.871094 12.835938 7.109375 12.246094 8.214844 C 11.234375 10.136719 9.640625 11.28125 8 11.28125 L 8 0 C 11.132812 0 13.15625 1.867188 13.15625 4.71875 Z M 13.15625 4.71875 "/>
<path style=" stroke:none;fill-rule:nonzero;fill:rgb(99.215686%,74.901961%,0%);fill-opacity:1;" d="M 8 0 C 6.527344 0 5.65625 1.785156 5.65625 4.71875 C 5.65625 7.363281 6.398438 11.28125 8 11.28125 C 9.601562 11.28125 10.34375 7.363281 10.34375 4.71875 C 10.34375 1.785156 9.472656 0 8 0 Z M 8 0 "/>
<path style=" stroke:none;fill-rule:nonzero;fill:rgb(100%,62.352941%,0%);fill-opacity:1;" d="M 8 11.28125 L 8 0 C 9.472656 0 10.34375 1.785156 10.34375 4.71875 C 10.34375 7.363281 9.601562 11.28125 8 11.28125 Z M 8 11.28125 "/>
<path style=" stroke:none;fill-rule:nonzero;fill:rgb(98.039216%,92.54902%,84.705882%);fill-opacity:1;" d="M 5.1875 5.65625 L 3.3125 5.65625 C 2.703125 5.65625 2.179688 5.265625 1.984375 4.71875 L 1.40625 4.71875 C 0.632812 4.71875 0 4.089844 0 3.3125 C 0 2.539062 0.632812 1.90625 1.40625 1.90625 L 3.3125 1.90625 C 3.921875 1.90625 4.445312 2.296875 4.640625 2.84375 L 5.1875 2.84375 C 5.964844 2.84375 6.59375 3.476562 6.59375 4.25 C 6.59375 5.027344 5.964844 5.65625 5.1875 5.65625 Z M 5.1875 5.65625 "/>
<path style=" stroke:none;fill-rule:nonzero;fill:rgb(97.254902%,89.803922%,79.215686%);fill-opacity:1;" d="M 14.59375 9.40625 L 12.6875 9.40625 C 12.074219 9.40625 11.554688 9.015625 11.363281 8.46875 L 10.8125 8.46875 C 10.039062 8.46875 9.40625 7.839844 9.40625 7.0625 C 9.40625 6.289062 10.039062 5.65625 10.8125 5.65625 L 12.6875 5.65625 C 13.300781 5.65625 13.820312 6.046875 14.011719 6.59375 L 14.59375 6.59375 C 15.371094 6.59375 16 7.226562 16 8 C 16 8.777344 15.371094 9.40625 14.59375 9.40625 Z M 14.59375 9.40625 "/>
</g>
</svg>
