<?xml version="1.0" encoding="UTF-8"?>
<svg xmlns="http://www.w3.org/2000/svg" xmlns:xlink="http://www.w3.org/1999/xlink" width="32pt" height="32pt" viewBox="0 0 32 32" version="1.1">
<g id="surface1">
<path style=" stroke:none;fill-rule:nonzero;fill:rgb(90.196078%,22.352941%,31.372549%);fill-opacity:1;" d="M 11.3125 25.695312 L 20.6875 25.695312 L 20.6875 32 L 11.3125 32 Z M 11.3125 25.695312 "/>
<path style=" stroke:none;fill-rule:nonzero;fill:rgb(80%,18.039216%,26.27451%);fill-opacity:1;" d="M 16 25.695312 L 20.6875 25.695312 L 20.6875 32 L 16 32 Z M 16 25.695312 "/>
<path style=" stroke:none;fill-rule:nonzero;fill:rgb(23.529412%,10.588235%,7.45098%);fill-opacity:1;" d="M 22.6875 16.058594 L 18.886719 25.007812 L 20.613281 25.742188 L 24.921875 15.59375 Z M 22.6875 16.058594 "/>
<path style=" stroke:none;fill-rule:nonzero;fill:rgb(34.509804%,16.862745%,12.156863%);fill-opacity:1;" d="M 15.0625 21.625 L 16.9375 21.625 L 16.9375 25.375 L 15.0625 25.375 Z M 15.0625 21.625 "/>
<path style=" stroke:none;fill-rule:nonzero;fill:rgb(34.509804%,16.862745%,12.156863%);fill-opacity:1;" d="M 11.386719 25.742188 L 6.90625 15.191406 L 8.636719 14.460938 L 13.113281 25.007812 Z M 11.386719 25.742188 "/>
<path style=" stroke:none;fill-rule:nonzero;fill:rgb(23.529412%,10.588235%,7.45098%);fill-opacity:1;" d="M 16 21.625 L 16.9375 21.625 L 16.9375 25.375 L 16 25.375 Z M 16 21.625 "/>
<path style=" stroke:none;fill-rule:nonzero;fill:rgb(99.215686%,74.901961%,0%);fill-opacity:1;" d="M 9.4375 24.4375 L 22.5625 24.4375 L 22.5625 26.3125 L 9.4375 26.3125 Z M 9.4375 24.4375 "/>
<path style=" stroke:none;fill-rule:nonzero;fill:rgb(100%,62.352941%,0%);fill-opacity:1;" d="M 16 24.4375 L 22.5625 24.4375 L 22.5625 26.3125 L 16 26.3125 Z M 16 24.4375 "/>
<path style=" stroke:none;fill-rule:nonzero;fill:rgb(90.196078%,22.352941%,31.372549%);fill-opacity:1;" d="M 16 0 C 11.3125 0 7.804688 2.085938 6.34375 5.648438 C 6.195312 6.023438 6.082031 6.417969 5.988281 6.8125 C 5.386719 9.324219 5.726562 12.382812 6.90625 15.195312 C 8.820312 19.675781 12.382812 22.5625 16 22.5625 C 19.28125 22.5625 22.46875 20.273438 24.492188 16.429688 C 25.675781 14.21875 26.3125 11.742188 26.3125 9.4375 C 26.3125 3.738281 22.261719 0 16 0 Z M 16 0 "/>
<path style=" stroke:none;fill-rule:nonzero;fill:rgb(80%,18.039216%,26.27451%);fill-opacity:1;" d="M 26.3125 9.4375 C 26.3125 11.742188 25.675781 14.21875 24.492188 16.429688 C 22.46875 20.273438 19.28125 22.5625 16 22.5625 L 16 0 C 22.261719 0 26.3125 3.738281 26.3125 9.4375 Z M 26.3125 9.4375 "/>
<path style=" stroke:none;fill-rule:nonzero;fill:rgb(99.215686%,74.901961%,0%);fill-opacity:1;" d="M 16 0 C 13.054688 0 11.3125 3.570312 11.3125 9.4375 C 11.3125 14.726562 12.792969 22.5625 16 22.5625 C 19.207031 22.5625 20.6875 14.726562 20.6875 9.4375 C 20.6875 3.570312 18.945312 0 16 0 Z M 16 0 "/>
<path style=" stroke:none;fill-rule:nonzero;fill:rgb(100%,62.352941%,0%);fill-opacity:1;" d="M 16 22.5625 L 16 0 C 18.945312 0 20.6875 3.570312 20.6875 9.4375 C 20.6875 14.726562 19.207031 22.5625 16 22.5625 Z M 16 22.5625 "/>
<path style=" stroke:none;fill-rule:nonzero;fill:rgb(98.039216%,92.54902%,84.705882%);fill-opacity:1;" d="M 10.375 11.3125 L 6.625 11.3125 C 5.402344 11.3125 4.359375 10.53125 3.972656 9.4375 L 2.8125 9.4375 C 1.261719 9.4375 0 8.175781 0 6.625 C 0 5.074219 1.261719 3.8125 2.8125 3.8125 L 6.625 3.8125 C 7.847656 3.8125 8.890625 4.59375 9.277344 5.6875 L 10.375 5.6875 C 11.925781 5.6875 13.1875 6.949219 13.1875 8.5 C 13.1875 10.050781 11.925781 11.3125 10.375 11.3125 Z M 10.375 11.3125 "/>
<path style=" stroke:none;fill-rule:nonzero;fill:rgb(97.254902%,89.803922%,79.215686%);fill-opacity:1;" d="M 29.1875 18.8125 L 25.375 18.8125 C 24.152344 18.8125 23.109375 18.03125 22.722656 16.9375 L 21.625 16.9375 C 20.074219 16.9375 18.8125 15.675781 18.8125 14.125 C 18.8125 12.574219 20.074219 11.3125 21.625 11.3125 L 25.375 11.3125 C 26.597656 11.3125 27.640625 12.09375 28.027344 13.1875 L 29.1875 13.1875 C 30.738281 13.1875 32 14.449219 32 16 C 32 17.550781 30.738281 18.8125 29.1875 18.8125 Z M 29.1875 18.8125 "/>
</g>
</svg>
