<svg xmlns="http://www.w3.org/2000/svg" height="624pt" version="1.1" viewBox="-118 0 624 624.41076" width="624pt">
<g id="surface1">
<path d="M 162.019531 52.09375 L 171.144531 42.390625 L 159.59375 34.417969 C 158.125 33.332031 156.914062 31.957031 156.011719 30.375 L 151.273438 22.285156 L 142.378906 25.289062 C 114.300781 34.765625 44.054688 65.265625 20.023438 135.398438 C -6.433594 211.882812 28.34375 311.472656 123.429688 431.285156 L 126.894531 435.675781 L 171.148438 435.675781 L 162.367188 418.808594 C 45.789062 194.664062 132.558594 80.976562 162.019531 52.09375 Z M 162.019531 52.09375 " style=" stroke:none;fill-rule:nonzero;fill:rgb(93.72549%,37.254902%,26.27451%);fill-opacity:1;" />
<path d="M 234.691406 27.023438 C 210.117188 10.996094 178.390625 10.996094 153.816406 27.023438 C 178.414062 42.976562 210.105469 42.976562 234.691406 27.023438 Z M 234.691406 27.023438 " style=" stroke:none;fill-rule:nonzero;fill:rgb(100%,100%,100%);fill-opacity:1;" />
<path d="M 194.253906 520.363281 L 194.253906 435.675781 L 246.246094 435.675781 L 234.691406 520.363281 Z M 194.253906 520.363281 " style=" stroke:none;fill-rule:nonzero;fill:rgb(100%,100%,100%);fill-opacity:1;" />
<path d="M 205.808594 508.8125 L 224.640625 508.8125 L 232.957031 447.230469 L 205.808594 447.230469 Z M 205.808594 508.8125 " style=" stroke:none;fill-rule:nonzero;fill:rgb(100%,100%,100%);fill-opacity:1;" />
<path d="M 217.359375 43.429688 L 213.433594 40.539062 L 208.695312 41.347656 C 199.371094 42.941406 189.828125 42.941406 180.503906 41.347656 L 175.765625 40.539062 L 171.144531 43.429688 C 164.90625 47.933594 20.945312 157.808594 168.023438 429.550781 L 171.261719 435.558594 L 217.359375 435.558594 L 220.59375 429.550781 C 367.558594 157.347656 218.515625 44.582031 217.359375 43.429688 Z M 217.359375 43.429688 " style=" stroke:none;fill-rule:nonzero;fill:rgb(30.196078%,80%,90.980392%);fill-opacity:1;" />
<path d="M 153.816406 520.363281 L 142.261719 435.675781 L 194.253906 435.675781 L 194.253906 520.363281 Z M 153.816406 520.363281 " style=" stroke:none;fill-rule:nonzero;fill:rgb(100%,100%,100%);fill-opacity:1;" />
<path d="M 163.867188 508.8125 L 182.699219 508.8125 L 182.699219 447.230469 L 155.433594 447.230469 Z M 163.867188 508.8125 " style=" stroke:none;fill-rule:nonzero;fill:rgb(100%,100%,100%);fill-opacity:1;" />
<path d="M 136.484375 520.015625 L 136.484375 554.679688 C 136.484375 586.578125 162.355469 612.445312 194.253906 612.445312 C 226.152344 612.445312 252.019531 586.578125 252.019531 554.679688 L 252.019531 520.015625 Z M 136.484375 520.015625 " style=" stroke:none;fill-rule:nonzero;fill:rgb(100%,83.921569%,61.176471%);fill-opacity:1;" />
<path d="M 368.484375 135.164062 C 344.453125 65.03125 274.089844 34.761719 245.207031 25.289062 L 236.308594 22.285156 L 231.574219 30.371094 C 230.683594 31.964844 229.457031 33.339844 227.992188 34.414062 L 216.4375 42.386719 L 226.027344 51.976562 C 255.488281 81.324219 342.257812 194.664062 225.332031 418.691406 L 217.363281 435.671875 L 262.074219 435.671875 L 265.539062 431.285156 C 360.28125 311.242188 395.058594 211.648438 368.484375 135.164062 Z M 368.484375 135.164062 " style=" stroke:none;fill-rule:nonzero;fill:rgb(100%,79.215686%,21.176471%);fill-opacity:1;" />
<path d="M 235.386719 10.382812 C 223.011719 2.917969 208.683594 -0.660156 194.253906 0.101562 C 179.871094 -0.511719 165.625 3.1875 153.355469 10.730469 C 148.039062 11.652344 41.863281 37.074219 9.394531 131.351562 C -18.910156 212.226562 17.714844 317.59375 118.113281 443.300781 C 120.320312 446.015625 123.625 447.585938 127.128906 447.574219 L 132.441406 447.574219 L 140.53125 508.460938 L 136.484375 508.460938 C 130.109375 508.460938 124.933594 513.640625 124.933594 520.015625 L 124.933594 554.675781 C 124.933594 592.964844 155.964844 624 194.253906 624 C 232.542969 624 263.578125 592.964844 263.578125 554.675781 L 263.578125 520.015625 C 263.578125 513.636719 258.402344 508.460938 252.023438 508.460938 L 247.980469 508.460938 L 256.414062 446.882812 L 261.730469 446.882812 C 265.230469 446.894531 268.535156 445.320312 270.742188 442.605469 C 371.144531 317.363281 407.769531 212.457031 379.460938 130.65625 C 346.648438 37.074219 240.46875 11.65625 235.386719 10.382812 Z M 194.253906 23.207031 C 202.375 22.988281 210.464844 24.363281 218.054688 27.25 C 202.652344 32.707031 185.855469 32.707031 170.453125 27.25 C 178.054688 24.363281 186.132812 22.988281 194.253906 23.207031 Z M 178.308594 52.785156 C 188.859375 54.578125 199.648438 54.578125 210.199219 52.785156 C 212.160156 54.171875 353.230469 160.003906 210.199219 424.121094 L 178.539062 424.121094 C 35.851562 161.277344 171.839844 57.871094 178.308594 52.785156 Z M 232.957031 447.230469 L 224.640625 508.464844 L 205.808594 508.464844 L 205.808594 447.230469 Z M 182.699219 447.230469 L 182.699219 508.464844 L 163.867188 508.464844 L 155.433594 446.882812 Z M 142.261719 424.121094 L 132.441406 424.121094 C 40.011719 307.546875 5.351562 211.648438 30.882812 139.09375 C 53.992188 73.582031 120.308594 45.277344 146.421875 36.265625 C 148.144531 39.210938 150.464844 41.773438 153.238281 43.773438 C 120.195312 76.816406 32.039062 193.972656 151.851562 424.003906 Z M 240.46875 554.679688 C 240.46875 580.199219 219.777344 600.894531 194.253906 600.894531 C 168.730469 600.894531 148.039062 580.199219 148.039062 554.679688 L 148.039062 531.570312 L 240.46875 531.570312 Z M 256.066406 424.121094 L 236.078125 424.121094 C 356.003906 194.550781 267.734375 76.816406 234.691406 43.890625 C 237.476562 41.855469 239.800781 39.257812 241.507812 36.265625 C 268.199219 45.160156 334.746094 73.351562 357.046875 138.859375 C 382.695312 211.535156 348.613281 307.429688 256.066406 424.121094 Z M 256.066406 424.121094 " style=" stroke:none;fill-rule:nonzero;fill:rgb(20.784314%,16.078431%,10.980392%);fill-opacity:1;" />
</g>
</svg>