<svg viewBox="0 0 512 512" xmlns="http://www.w3.org/2000/svg"><path d="m181 411.097656h150v100.902344h-150zm0 0" fill="#e63950"/><path d="m256 411.097656h75v100.902344h-75zm0 0" fill="#cc2e43"/><path d="m362.964844 256.953125-60.777344 143.1875 27.625 11.71875 68.910156-162.351563zm0 0" fill="#3c1b13"/><path d="m241 346h30v60h-30zm0 0" fill="#582b1f"/><path d="m182.1875 411.859375-71.648438-168.792969 27.628907-11.71875 71.644531 168.792969zm0 0" fill="#582b1f"/><path d="m256 346h15v60h-15zm0 0" fill="#3c1b13"/><path d="m151 391h210v30h-210zm0 0" fill="#fdbf00"/><path d="m256 391h105v30h-105zm0 0" fill="#ff9f00"/><path d="m256 0c-75 0-131.101562 33.402344-154.5 90.398438-2.398438 6-4.199219 12.300781-5.699219 18.601562-9.601562 40.199219-4.199219 89.101562 14.699219 134.101562 30.597656 71.699219 87.601562 117.898438 145.5 117.898438 52.5 0 103.5-36.597656 135.902344-98.101562 18.898437-35.398438 29.097656-75 29.097656-111.898438 0-91.199219-64.800781-151-165-151zm0 0" fill="#e63950"/><path d="m421 151c0 36.898438-10.199219 76.5-29.097656 111.898438-32.402344 61.503906-83.402344 98.101562-135.902344 98.101562v-361c100.199219 0 165 59.800781 165 151zm0 0" fill="#cc2e43"/><path d="m256 0c-47.101562 0-75 57.101562-75 151 0 84.601562 23.699219 210 75 210s75-125.398438 75-210c0-93.898438-27.898438-151-75-151zm0 0" fill="#fdbf00"/><path d="m256 361v-361c47.101562 0 75 57.101562 75 151 0 84.601562-23.699219 210-75 210zm0 0" fill="#ff9f00"/><path d="m166 181h-60c-19.554688 0-36.238281-12.539062-42.4375-30h-18.5625c-24.8125 0-45-20.1875-45-45s20.1875-45 45-45h61c19.554688 0 36.238281 12.539062 42.4375 30h17.5625c24.8125 0 45 20.1875 45 45s-20.1875 45-45 45zm0 0" fill="#faecd8"/><path d="m467 301h-61c-19.554688 0-36.238281-12.539062-42.4375-30h-17.5625c-24.8125 0-45-20.1875-45-45s20.1875-45 45-45h60c19.554688 0 36.238281 12.539062 42.4375 30h18.5625c24.8125 0 45 20.1875 45 45s-20.1875 45-45 45zm0 0" fill="#f8e5ca"/></svg>