<?xml version="1.0" encoding="UTF-8"?>
<svg xmlns="http://www.w3.org/2000/svg" xmlns:xlink="http://www.w3.org/1999/xlink" width="64pt" height="64pt" viewBox="0 0 64 64" version="1.1">
<g id="surface1">
<path style=" stroke:none;fill-rule:nonzero;fill:rgb(90.196078%,22.352941%,31.372549%);fill-opacity:1;" d="M 22.625 51.386719 L 41.375 51.386719 L 41.375 64 L 22.625 64 Z M 22.625 51.386719 "/>
<path style=" stroke:none;fill-rule:nonzero;fill:rgb(80%,18.039216%,26.27451%);fill-opacity:1;" d="M 32 51.386719 L 41.375 51.386719 L 41.375 64 L 32 64 Z M 32 51.386719 "/>
<path style=" stroke:none;fill-rule:nonzero;fill:rgb(23.529412%,10.588235%,7.45098%);fill-opacity:1;" d="M 45.371094 32.117188 L 37.773438 50.015625 L 41.226562 51.484375 L 49.839844 31.1875 Z M 45.371094 32.117188 "/>
<path style=" stroke:none;fill-rule:nonzero;fill:rgb(34.509804%,16.862745%,12.156863%);fill-opacity:1;" d="M 30.125 43.25 L 33.875 43.25 L 33.875 50.75 L 30.125 50.75 Z M 30.125 43.25 "/>
<path style=" stroke:none;fill-rule:nonzero;fill:rgb(34.509804%,16.862745%,12.156863%);fill-opacity:1;" d="M 22.773438 51.484375 L 13.816406 30.382812 L 17.273438 28.917969 L 26.226562 50.015625 Z M 22.773438 51.484375 "/>
<path style=" stroke:none;fill-rule:nonzero;fill:rgb(23.529412%,10.588235%,7.45098%);fill-opacity:1;" d="M 32 43.25 L 33.875 43.25 L 33.875 50.75 L 32 50.75 Z M 32 43.25 "/>
<path style=" stroke:none;fill-rule:nonzero;fill:rgb(99.215686%,74.901961%,0%);fill-opacity:1;" d="M 18.875 48.875 L 45.125 48.875 L 45.125 52.625 L 18.875 52.625 Z M 18.875 48.875 "/>
<path style=" stroke:none;fill-rule:nonzero;fill:rgb(100%,62.352941%,0%);fill-opacity:1;" d="M 32 48.875 L 45.125 48.875 L 45.125 52.625 L 32 52.625 Z M 32 48.875 "/>
<path style=" stroke:none;fill-rule:nonzero;fill:rgb(90.196078%,22.352941%,31.372549%);fill-opacity:1;" d="M 32 0 C 22.625 0 15.613281 4.175781 12.6875 11.300781 C 12.386719 12.050781 12.164062 12.835938 11.976562 13.625 C 10.773438 18.648438 11.449219 24.761719 13.8125 30.386719 C 17.636719 39.351562 24.761719 45.125 32 45.125 C 38.5625 45.125 44.9375 40.550781 48.988281 32.863281 C 51.351562 28.4375 52.625 23.488281 52.625 18.875 C 52.625 7.476562 44.523438 0 32 0 Z M 32 0 "/>
<path style=" stroke:none;fill-rule:nonzero;fill:rgb(80%,18.039216%,26.27451%);fill-opacity:1;" d="M 52.625 18.875 C 52.625 23.488281 51.351562 28.4375 48.988281 32.863281 C 44.9375 40.550781 38.5625 45.125 32 45.125 L 32 0 C 44.523438 0 52.625 7.476562 52.625 18.875 Z M 52.625 18.875 "/>
<path style=" stroke:none;fill-rule:nonzero;fill:rgb(99.215686%,74.901961%,0%);fill-opacity:1;" d="M 32 0 C 26.113281 0 22.625 7.136719 22.625 18.875 C 22.625 29.449219 25.585938 45.125 32 45.125 C 38.414062 45.125 41.375 29.449219 41.375 18.875 C 41.375 7.136719 37.886719 0 32 0 Z M 32 0 "/>
<path style=" stroke:none;fill-rule:nonzero;fill:rgb(100%,62.352941%,0%);fill-opacity:1;" d="M 32 45.125 L 32 0 C 37.886719 0 41.375 7.136719 41.375 18.875 C 41.375 29.449219 38.414062 45.125 32 45.125 Z M 32 45.125 "/>
<path style=" stroke:none;fill-rule:nonzero;fill:rgb(98.039216%,92.54902%,84.705882%);fill-opacity:1;" d="M 20.75 22.625 L 13.25 22.625 C 10.804688 22.625 8.71875 21.058594 7.945312 18.875 L 5.625 18.875 C 2.523438 18.875 0 16.351562 0 13.25 C 0 10.148438 2.523438 7.625 5.625 7.625 L 13.25 7.625 C 15.695312 7.625 17.78125 9.191406 18.554688 11.375 L 20.75 11.375 C 23.851562 11.375 26.375 13.898438 26.375 17 C 26.375 20.101562 23.851562 22.625 20.75 22.625 Z M 20.75 22.625 "/>
<path style=" stroke:none;fill-rule:nonzero;fill:rgb(97.254902%,89.803922%,79.215686%);fill-opacity:1;" d="M 58.375 37.625 L 50.75 37.625 C 48.304688 37.625 46.21875 36.058594 45.445312 33.875 L 43.25 33.875 C 40.148438 33.875 37.625 31.351562 37.625 28.25 C 37.625 25.148438 40.148438 22.625 43.25 22.625 L 50.75 22.625 C 53.195312 22.625 55.28125 24.191406 56.054688 26.375 L 58.375 26.375 C 61.476562 26.375 64 28.898438 64 32 C 64 35.101562 61.476562 37.625 58.375 37.625 Z M 58.375 37.625 "/>
</g>
</svg>
